{"title":"Memories.of.the.Sword.2015.BRRip.480p.x264.AAC-VYTO [P2PDL]","uid":13107993,"size":481258778,"categoryP":"video","categoryS":"movies","magnet":"?xt=urn:btih:6f3a08ddbdd95231f4b07c9e662ecec9f48cd268&amp;dn=Memories.of.the.Sword.2015.BRRip.480p.x264.AAC-VYTO+%5BP2PDL%5D&amp;tr=udp%3A%2F%2Ftracker.leechers-paradise.org%3A6969&amp;tr=udp%3A%2F%2Fzer0day.ch%3A1337&amp;tr=udp%3A%2F%2Fopen.demonii.com%3A1337&amp;tr=udp%3A%2F%2Ftracker.coppersurfer.tk%3A6969&amp;tr=udp%3A%2F%2Fexodus.desync.com%3A6969","seeders":2,"leechers":1,"uploader":"VYTOP2PDL","files":7,"time":1451385066,"description":"Memories.of.the.Sword.2015.BRRip.480p.x264.AAC-VYTO\r\n\r\n\r\nGenre: Action, Drama, History \nhttp://www.imdb.com/title/tt3054798/\r\n\r\n\r\nFormat                                   : MPEG-4\r\nFile size                                : 452 MiB\r\nDuration                                 : 2h 0mn\r\nOverall bit rate                         : 525 Kbps\r\n\r\nVideo\r\nFormat                                   : AVC\r\nBit rate                                 : 490 Kbps\r\nWidth                                    : 720 pixels\r\nHeight                                   : 304 pixels\r\nDisplay aspect ratio                     : 2.35:1\r\nFrame rate mode                          : Constant\r\nFrame rate                               : 24.000 fps\r\nBit depth                                : 8 bits\r\nStream size                              : 421 MiB (93%)\r\nWriting library                          : x264\r\n\r\nAudio\r\nFormat                                   : AAC\r\nBit rate mode                            : Variable\r\nBit rate                                 : 32.0 Kbps\r\nChannel(s)                               : 2 channels \r\nChannel positions                        : Front: L R \r\nSampling rate                            : 48.0 KHz\r\nStream size                              : 27.5 MiB (6%)\r\nLanguage                                 : Korean\r\n\r\nSubtitle                                 : Yes (English)\r\n\r\nScreen Shots: (Click to view)\r\n \nhttp://ititli.com/Ep \nhttp://ititli.com/ED \nhttp://ititli.com/Ea \nhttp://ititli.com/Eb \nhttp://ititli.com/Ez \nhttp://ititli.com/EI \nhttp://ititli.com/EO \nhttp://ititli.com/Q9 \nhttp://ititli.com/QX\r\n\r\n----------------------------------------------------------------------------------------------------\r\n\r\n\r\nEncoder Notes: Looking For Early Access To Anything You Can Provide WEBDL, DVDScr, DVDR, BluRay,\r\nDirect Audio, Music Releases and Seedboxes. If You Got anything to offer please contact us.\r\n\r\nSupport us by donating BC - 1FgwdzPsd1y25Gea8wP1qni35uGCtmkRCD\r\n\r\nSend some love!\r\nFind us and join us!","torrent":{"xt":"urn:btih:6f3a08ddbdd95231f4b07c9e662ecec9f48cd268","amp;dn":"Memories.of.the.Sword.2015.BRRip.480p.x264.AAC-VYTO+%5BP2PDL%5D","amp;tr":["udp%3A%2F%2Ftracker.leechers-paradise.org%3A6969","udp%3A%2F%2Fzer0day.ch%3A1337","udp%3A%2F%2Fopen.demonii.com%3A1337","udp%3A%2F%2Ftracker.coppersurfer.tk%3A6969","udp%3A%2F%2Fexodus.desync.com%3A6969"],"infoHash":"6f3a08ddbdd95231f4b07c9e662ecec9f48cd268","infoHashBuffer":{"type":"Buffer","data":[111,58,8,221,189,217,82,49,244,176,124,158,102,46,206,201,244,140,210,104]},"announce":[],"urlList":[]}}